<mxfile host="app.diagrams.net" modified="2021-12-22T08:34:45.892Z" agent="5.0 (Windows NT 10.0; Win64; x64) AppleWebKit/537.36 (KHTML, like Gecko) Chrome/96.0.4664.110 Safari/537.36" etag="6SjNYTOt8S6dX9jfFAAD" version="16.0.3" type="github">
  <diagram id="-8Clknxb2J9grHJ9hm-8" name="Page-1">
    <mxGraphModel dx="1328" dy="710" grid="1" gridSize="10" guides="1" tooltips="1" connect="1" arrows="1" fold="1" page="1" pageScale="1" pageWidth="1169" pageHeight="827" math="0" shadow="0">
      <root>
        <mxCell id="0" />
        <mxCell id="1" parent="0" />
        <mxCell id="fpblmt7jhUxg1IwRCJjJ-127" value="" style="verticalLabelPosition=bottom;html=1;verticalAlign=top;align=center;shape=mxgraph.floorplan.desk_corner_2;strokeColor=default;fillColor=default;" vertex="1" parent="1">
          <mxGeometry x="290" y="50" width="80" height="100" as="geometry" />
        </mxCell>
        <mxCell id="fpblmt7jhUxg1IwRCJjJ-1" value="" style="verticalLabelPosition=bottom;html=1;verticalAlign=top;align=center;shape=mxgraph.floorplan.wall;fillColor=#000000;direction=south;" vertex="1" parent="1">
          <mxGeometry x="280" y="50" width="10" height="480" as="geometry" />
        </mxCell>
        <mxCell id="fpblmt7jhUxg1IwRCJjJ-2" value="" style="verticalLabelPosition=bottom;html=1;verticalAlign=top;align=center;shape=mxgraph.floorplan.wall;fillColor=#000000;" vertex="1" parent="1">
          <mxGeometry x="480" y="720" width="250" height="10" as="geometry" />
        </mxCell>
        <mxCell id="fpblmt7jhUxg1IwRCJjJ-4" value="" style="verticalLabelPosition=bottom;html=1;verticalAlign=top;align=center;shape=mxgraph.floorplan.wall;fillColor=#000000;" vertex="1" parent="1">
          <mxGeometry x="410" y="40" width="320" height="10" as="geometry" />
        </mxCell>
        <mxCell id="fpblmt7jhUxg1IwRCJjJ-5" value="" style="verticalLabelPosition=bottom;html=1;verticalAlign=top;align=center;shape=mxgraph.floorplan.stairs;direction=south;" vertex="1" parent="1">
          <mxGeometry x="430" y="530" width="90" height="185" as="geometry" />
        </mxCell>
        <mxCell id="fpblmt7jhUxg1IwRCJjJ-6" value="" style="verticalLabelPosition=bottom;html=1;verticalAlign=top;align=center;shape=mxgraph.floorplan.wall;fillColor=#000000;direction=south;" vertex="1" parent="1">
          <mxGeometry x="720" y="50" width="10" height="670" as="geometry" />
        </mxCell>
        <mxCell id="fpblmt7jhUxg1IwRCJjJ-7" value="" style="verticalLabelPosition=bottom;html=1;verticalAlign=top;align=center;shape=mxgraph.floorplan.wall;fillColor=#000000;" vertex="1" parent="1">
          <mxGeometry x="290" y="520" width="140" height="10" as="geometry" />
        </mxCell>
        <mxCell id="fpblmt7jhUxg1IwRCJjJ-8" value="" style="verticalLabelPosition=bottom;html=1;verticalAlign=top;align=center;shape=mxgraph.floorplan.wall;fillColor=none;direction=south;dashed=1;" vertex="1" parent="1">
          <mxGeometry x="420" y="450" width="10" height="80" as="geometry" />
        </mxCell>
        <mxCell id="fpblmt7jhUxg1IwRCJjJ-9" value="" style="verticalLabelPosition=bottom;html=1;verticalAlign=top;align=center;shape=mxgraph.floorplan.wall;fillColor=#000000;direction=south;" vertex="1" parent="1">
          <mxGeometry x="520" y="530" width="10" height="200" as="geometry" />
        </mxCell>
        <mxCell id="fpblmt7jhUxg1IwRCJjJ-12" value="" style="verticalLabelPosition=bottom;html=1;verticalAlign=top;align=center;shape=mxgraph.floorplan.elevator;" vertex="1" parent="1">
          <mxGeometry x="360" y="460" width="60" height="60" as="geometry" />
        </mxCell>
        <mxCell id="fpblmt7jhUxg1IwRCJjJ-15" value="" style="verticalLabelPosition=bottom;html=1;verticalAlign=top;align=center;shape=mxgraph.floorplan.wall;fillColor=#000000;" vertex="1" parent="1">
          <mxGeometry x="430" y="161" width="60" height="10" as="geometry" />
        </mxCell>
        <mxCell id="fpblmt7jhUxg1IwRCJjJ-16" value="" style="verticalLabelPosition=bottom;html=1;verticalAlign=top;align=center;shape=mxgraph.floorplan.wall;fillColor=#000000;" vertex="1" parent="1">
          <mxGeometry x="290" y="220" width="80" height="10" as="geometry" />
        </mxCell>
        <mxCell id="fpblmt7jhUxg1IwRCJjJ-17" value="" style="verticalLabelPosition=bottom;html=1;verticalAlign=top;align=center;shape=mxgraph.floorplan.wall;fillColor=#000000;" vertex="1" parent="1">
          <mxGeometry x="590" y="540" width="60" height="10" as="geometry" />
        </mxCell>
        <mxCell id="fpblmt7jhUxg1IwRCJjJ-19" value="" style="verticalLabelPosition=bottom;html=1;verticalAlign=top;align=center;shape=mxgraph.floorplan.wall;fillColor=none;direction=south;dashed=1;" vertex="1" parent="1">
          <mxGeometry x="520" y="450" width="10" height="80" as="geometry" />
        </mxCell>
        <mxCell id="fpblmt7jhUxg1IwRCJjJ-25" value="" style="verticalLabelPosition=bottom;html=1;verticalAlign=top;align=center;shape=mxgraph.floorplan.desk_corner_2;rotation=-90;" vertex="1" parent="1">
          <mxGeometry x="263.75" y="126.25" width="120" height="67.5" as="geometry" />
        </mxCell>
        <mxCell id="fpblmt7jhUxg1IwRCJjJ-56" value="" style="verticalLabelPosition=bottom;html=1;verticalAlign=top;align=center;shape=mxgraph.floorplan.wall;fillColor=#000000;" vertex="1" parent="1">
          <mxGeometry x="340" y="450" width="190" height="10" as="geometry" />
        </mxCell>
        <mxCell id="fpblmt7jhUxg1IwRCJjJ-57" value="" style="verticalLabelPosition=bottom;html=1;verticalAlign=top;align=center;shape=mxgraph.floorplan.wall;fillColor=none;dashed=1;" vertex="1" parent="1">
          <mxGeometry x="530" y="540" width="60" height="10" as="geometry" />
        </mxCell>
        <mxCell id="fpblmt7jhUxg1IwRCJjJ-58" value="" style="verticalLabelPosition=bottom;html=1;verticalAlign=top;align=center;shape=mxgraph.floorplan.wall;fillColor=#000000;direction=south;" vertex="1" parent="1">
          <mxGeometry x="610" y="230" width="10" height="310" as="geometry" />
        </mxCell>
        <mxCell id="fpblmt7jhUxg1IwRCJjJ-59" value="" style="verticalLabelPosition=bottom;html=1;verticalAlign=top;align=center;shape=mxgraph.floorplan.wall;fillColor=#000000;" vertex="1" parent="1">
          <mxGeometry x="680" y="470" width="50" height="10" as="geometry" />
        </mxCell>
        <mxCell id="fpblmt7jhUxg1IwRCJjJ-60" value="" style="verticalLabelPosition=bottom;html=1;verticalAlign=top;align=center;shape=mxgraph.floorplan.wall;fillColor=#000000;" vertex="1" parent="1">
          <mxGeometry x="690" y="540" width="40" height="10" as="geometry" />
        </mxCell>
        <mxCell id="fpblmt7jhUxg1IwRCJjJ-61" value="" style="verticalLabelPosition=bottom;html=1;verticalAlign=top;align=center;shape=mxgraph.floorplan.bed_double;fillColor=none;rotation=90;" vertex="1" parent="1">
          <mxGeometry x="610" y="582.5" width="100" height="110" as="geometry" />
        </mxCell>
        <mxCell id="fpblmt7jhUxg1IwRCJjJ-62" value="" style="verticalLabelPosition=bottom;html=1;verticalAlign=top;align=center;shape=mxgraph.floorplan.wall;fillColor=#000000;" vertex="1" parent="1">
          <mxGeometry x="620" y="383" width="100" height="10" as="geometry" />
        </mxCell>
        <mxCell id="fpblmt7jhUxg1IwRCJjJ-63" value="" style="verticalLabelPosition=bottom;html=1;verticalAlign=top;align=center;shape=mxgraph.floorplan.bed_double;fillColor=none;" vertex="1" parent="1">
          <mxGeometry x="540" y="60" width="130" height="110" as="geometry" />
        </mxCell>
        <mxCell id="fpblmt7jhUxg1IwRCJjJ-64" value="" style="verticalLabelPosition=bottom;html=1;verticalAlign=top;align=center;shape=mxgraph.floorplan.wall;fillColor=#000000;direction=south;" vertex="1" parent="1">
          <mxGeometry x="490" y="50" width="10" height="130" as="geometry" />
        </mxCell>
        <mxCell id="fpblmt7jhUxg1IwRCJjJ-65" value="" style="verticalLabelPosition=bottom;html=1;verticalAlign=top;align=center;shape=mxgraph.floorplan.wall;fillColor=#000000;" vertex="1" parent="1">
          <mxGeometry x="490" y="220" width="150" height="10" as="geometry" />
        </mxCell>
        <mxCell id="fpblmt7jhUxg1IwRCJjJ-66" value="" style="verticalLabelPosition=bottom;html=1;verticalAlign=top;align=center;shape=mxgraph.floorplan.wall;fillColor=#000000;direction=south;" vertex="1" parent="1">
          <mxGeometry x="430" y="170" width="10" height="60" as="geometry" />
        </mxCell>
        <mxCell id="fpblmt7jhUxg1IwRCJjJ-67" value="" style="verticalLabelPosition=bottom;html=1;verticalAlign=top;align=center;shape=mxgraph.floorplan.wall;fillColor=#000000;" vertex="1" parent="1">
          <mxGeometry x="490" y="170" width="10" height="10" as="geometry" />
        </mxCell>
        <mxCell id="fpblmt7jhUxg1IwRCJjJ-69" value="" style="verticalLabelPosition=bottom;html=1;verticalAlign=top;align=center;shape=mxgraph.floorplan.wall;fillColor=none;direction=south;strokeColor=default;" vertex="1" parent="1">
          <mxGeometry x="640" y="390" width="10" height="90" as="geometry" />
        </mxCell>
        <mxCell id="fpblmt7jhUxg1IwRCJjJ-70" value="" style="verticalLabelPosition=bottom;html=1;verticalAlign=top;align=center;shape=mxgraph.floorplan.wall;fillColor=#000000;" vertex="1" parent="1">
          <mxGeometry x="680" y="300" width="40" height="10" as="geometry" />
        </mxCell>
        <mxCell id="fpblmt7jhUxg1IwRCJjJ-71" value="" style="verticalLabelPosition=bottom;html=1;verticalAlign=top;align=center;shape=mxgraph.floorplan.wall;fillColor=none;direction=south;" vertex="1" parent="1">
          <mxGeometry x="640" y="300" width="10" height="90" as="geometry" />
        </mxCell>
        <mxCell id="fpblmt7jhUxg1IwRCJjJ-72" value="" style="verticalLabelPosition=bottom;html=1;verticalAlign=top;align=center;shape=mxgraph.floorplan.wall;fillColor=#000000;" vertex="1" parent="1">
          <mxGeometry x="680" y="220" width="40" height="10" as="geometry" />
        </mxCell>
        <mxCell id="fpblmt7jhUxg1IwRCJjJ-73" value="" style="verticalLabelPosition=bottom;html=1;verticalAlign=top;align=center;shape=mxgraph.floorplan.wall;fillColor=none;dashed=1;" vertex="1" parent="1">
          <mxGeometry x="640" y="220" width="40" height="10" as="geometry" />
        </mxCell>
        <mxCell id="fpblmt7jhUxg1IwRCJjJ-74" value="" style="verticalLabelPosition=bottom;html=1;verticalAlign=top;align=center;shape=mxgraph.floorplan.wall;fillColor=none;dashed=1;" vertex="1" parent="1">
          <mxGeometry x="650" y="540" width="50" height="10" as="geometry" />
        </mxCell>
        <mxCell id="fpblmt7jhUxg1IwRCJjJ-75" value="" style="verticalLabelPosition=bottom;html=1;verticalAlign=top;align=center;shape=mxgraph.floorplan.toilet;fillColor=default;" vertex="1" parent="1">
          <mxGeometry x="690" y="310" width="20" height="30" as="geometry" />
        </mxCell>
        <mxCell id="fpblmt7jhUxg1IwRCJjJ-76" value="" style="verticalLabelPosition=bottom;html=1;verticalAlign=top;align=center;shape=mxgraph.floorplan.toilet;fillColor=default;" vertex="1" parent="1">
          <mxGeometry x="690" y="393" width="20" height="30" as="geometry" />
        </mxCell>
        <mxCell id="fpblmt7jhUxg1IwRCJjJ-77" value="" style="verticalLabelPosition=bottom;html=1;verticalAlign=top;align=center;shape=mxgraph.floorplan.wall;fillColor=#000000;" vertex="1" parent="1">
          <mxGeometry x="620" y="300" width="30" height="10" as="geometry" />
        </mxCell>
        <mxCell id="fpblmt7jhUxg1IwRCJjJ-78" value="" style="verticalLabelPosition=bottom;html=1;verticalAlign=top;align=center;shape=mxgraph.floorplan.wall;fillColor=#000000;" vertex="1" parent="1">
          <mxGeometry x="620" y="470" width="30" height="10" as="geometry" />
        </mxCell>
        <mxCell id="fpblmt7jhUxg1IwRCJjJ-79" value="" style="verticalLabelPosition=bottom;html=1;verticalAlign=top;align=center;shape=mxgraph.floorplan.sink_2;strokeColor=default;fillColor=none;rotation=-180;" vertex="1" parent="1">
          <mxGeometry x="685" y="445" width="30" height="25" as="geometry" />
        </mxCell>
        <mxCell id="fpblmt7jhUxg1IwRCJjJ-80" value="" style="verticalLabelPosition=bottom;html=1;verticalAlign=top;align=center;shape=mxgraph.floorplan.sink_2;strokeColor=default;fillColor=none;rotation=-180;" vertex="1" parent="1">
          <mxGeometry x="685" y="362.5" width="30" height="25" as="geometry" />
        </mxCell>
        <mxCell id="fpblmt7jhUxg1IwRCJjJ-83" value="" style="verticalLabelPosition=bottom;html=1;verticalAlign=top;align=center;shape=mxgraph.floorplan.wall;fillColor=none;strokeColor=default;dashed=1;" vertex="1" parent="1">
          <mxGeometry x="373.75" y="40" width="32.5" height="10" as="geometry" />
        </mxCell>
        <mxCell id="fpblmt7jhUxg1IwRCJjJ-84" value="" style="verticalLabelPosition=bottom;html=1;verticalAlign=top;align=center;shape=mxgraph.floorplan.wall;fillColor=#000000;strokeColor=default;" vertex="1" parent="1">
          <mxGeometry x="280" y="40" width="100" height="10" as="geometry" />
        </mxCell>
        <mxCell id="fpblmt7jhUxg1IwRCJjJ-85" value="" style="verticalLabelPosition=bottom;html=1;verticalAlign=top;align=center;shape=mxgraph.floorplan.wall;fillColor=none;dashed=1;strokeColor=default;" vertex="1" parent="1">
          <mxGeometry x="360" y="220" width="40" height="10" as="geometry" />
        </mxCell>
        <mxCell id="fpblmt7jhUxg1IwRCJjJ-86" value="" style="verticalLabelPosition=bottom;html=1;verticalAlign=top;align=center;shape=mxgraph.floorplan.wall;fillColor=#000000;strokeColor=default;" vertex="1" parent="1">
          <mxGeometry x="400" y="220" width="40" height="10" as="geometry" />
        </mxCell>
        <mxCell id="fpblmt7jhUxg1IwRCJjJ-87" value="" style="verticalLabelPosition=bottom;html=1;verticalAlign=top;align=center;shape=mxgraph.floorplan.wall;fillColor=none;direction=south;strokeColor=default;dashed=1;" vertex="1" parent="1">
          <mxGeometry x="490" y="180" width="10" height="50" as="geometry" />
        </mxCell>
        <mxCell id="fpblmt7jhUxg1IwRCJjJ-88" value="" style="verticalLabelPosition=bottom;html=1;verticalAlign=top;align=center;shape=mxgraph.floorplan.couch;strokeColor=default;fillColor=default;rotation=0;" vertex="1" parent="1">
          <mxGeometry x="325" y="240" width="85" height="50" as="geometry" />
        </mxCell>
        <mxCell id="fpblmt7jhUxg1IwRCJjJ-103" value="" style="verticalLabelPosition=bottom;html=1;verticalAlign=top;align=center;shape=mxgraph.floorplan.wall;fillColor=none;strokeColor=default;dashed=1;" vertex="1" parent="1">
          <mxGeometry x="305.5" y="450" width="39" height="10" as="geometry" />
        </mxCell>
        <mxCell id="fpblmt7jhUxg1IwRCJjJ-104" value="" style="verticalLabelPosition=bottom;html=1;verticalAlign=top;align=center;shape=mxgraph.floorplan.wall;fillColor=#000000;direction=south;strokeColor=default;" vertex="1" parent="1">
          <mxGeometry x="350" y="460" width="10" height="70" as="geometry" />
        </mxCell>
        <mxCell id="fpblmt7jhUxg1IwRCJjJ-105" value="" style="verticalLabelPosition=bottom;html=1;verticalAlign=top;align=center;shape=mxgraph.floorplan.wall;fillColor=#000000;strokeColor=default;" vertex="1" parent="1">
          <mxGeometry x="280" y="450" width="30" height="10" as="geometry" />
        </mxCell>
        <mxCell id="fpblmt7jhUxg1IwRCJjJ-107" value="" style="verticalLabelPosition=bottom;html=1;verticalAlign=top;align=center;shape=mxgraph.floorplan.wall;fillColor=none;strokeColor=default;" vertex="1" parent="1">
          <mxGeometry x="280" y="720" width="200" height="10" as="geometry" />
        </mxCell>
        <mxCell id="fpblmt7jhUxg1IwRCJjJ-108" value="" style="verticalLabelPosition=bottom;html=1;verticalAlign=top;align=center;shape=mxgraph.floorplan.wall;fillColor=none;direction=south;strokeColor=default;" vertex="1" parent="1">
          <mxGeometry x="280" y="530" width="10" height="200" as="geometry" />
        </mxCell>
        <mxCell id="fpblmt7jhUxg1IwRCJjJ-109" value="" style="verticalLabelPosition=bottom;html=1;verticalAlign=top;align=center;shape=mxgraph.floorplan.wall;fillColor=#000000;direction=south;strokeColor=default;" vertex="1" parent="1">
          <mxGeometry x="810" y="190" width="10" height="40" as="geometry" />
        </mxCell>
        <mxCell id="fpblmt7jhUxg1IwRCJjJ-110" value="" style="verticalLabelPosition=bottom;html=1;verticalAlign=top;align=center;shape=mxgraph.floorplan.wall;fillColor=none;direction=south;strokeColor=default;dashed=1;" vertex="1" parent="1">
          <mxGeometry x="430" y="115" width="10" height="45" as="geometry" />
        </mxCell>
        <mxCell id="fpblmt7jhUxg1IwRCJjJ-111" value="" style="verticalLabelPosition=bottom;html=1;verticalAlign=top;align=center;shape=mxgraph.floorplan.range_1;strokeColor=default;fillColor=default;" vertex="1" parent="1">
          <mxGeometry x="294.5" y="130" width="25.5" height="41" as="geometry" />
        </mxCell>
        <mxCell id="fpblmt7jhUxg1IwRCJjJ-112" value="" style="verticalLabelPosition=bottom;html=1;verticalAlign=top;align=center;shape=mxgraph.floorplan.sink_2;strokeColor=default;fillColor=default;rotation=-180;" vertex="1" parent="1">
          <mxGeometry x="325" y="190" width="35" height="30" as="geometry" />
        </mxCell>
        <mxCell id="fpblmt7jhUxg1IwRCJjJ-114" value="" style="verticalLabelPosition=bottom;html=1;verticalAlign=top;align=center;shape=mxgraph.floorplan.refrigerator;strokeColor=default;fillColor=default;rotation=0;" vertex="1" parent="1">
          <mxGeometry x="400" y="170" width="30" height="40" as="geometry" />
        </mxCell>
        <mxCell id="fpblmt7jhUxg1IwRCJjJ-116" value="12 ft" style="shape=dimension;direction=north;whiteSpace=wrap;html=1;align=right;points=[];verticalAlign=middle;labelBackgroundColor=#ffffff;strokeColor=default;fillColor=default;" vertex="1" parent="1">
          <mxGeometry x="720" y="50" width="40" height="170" as="geometry" />
        </mxCell>
        <mxCell id="fpblmt7jhUxg1IwRCJjJ-118" value="14 ft" style="shape=dimension;direction=north;whiteSpace=wrap;html=1;align=right;points=[];verticalAlign=middle;labelBackgroundColor=#ffffff;strokeColor=default;fillColor=default;" vertex="1" parent="1">
          <mxGeometry x="720" y="550" width="40" height="170" as="geometry" />
        </mxCell>
        <mxCell id="fpblmt7jhUxg1IwRCJjJ-119" value="7 ft" style="shape=dimension;direction=north;whiteSpace=wrap;html=1;align=right;points=[];verticalAlign=middle;labelBackgroundColor=#ffffff;strokeColor=default;fillColor=default;" vertex="1" parent="1">
          <mxGeometry x="720" y="310" width="40" height="80" as="geometry" />
        </mxCell>
        <mxCell id="fpblmt7jhUxg1IwRCJjJ-120" value="7 ft" style="shape=dimension;direction=north;whiteSpace=wrap;html=1;align=right;points=[];verticalAlign=middle;labelBackgroundColor=#ffffff;strokeColor=default;fillColor=default;" vertex="1" parent="1">
          <mxGeometry x="720" y="400" width="40" height="70" as="geometry" />
        </mxCell>
        <mxCell id="fpblmt7jhUxg1IwRCJjJ-122" value="14 ft" style="shape=dimension;direction=west;whiteSpace=wrap;html=1;align=center;points=[];verticalAlign=top;spacingTop=-8;labelBackgroundColor=#ffffff;strokeColor=default;fillColor=default;" vertex="1" parent="1">
          <mxGeometry x="500" y="20" width="220" height="40" as="geometry" />
        </mxCell>
        <mxCell id="fpblmt7jhUxg1IwRCJjJ-123" value="11 ft" style="shape=dimension;direction=west;whiteSpace=wrap;html=1;align=center;points=[];verticalAlign=top;spacingTop=-8;labelBackgroundColor=#ffffff;strokeColor=default;fillColor=default;" vertex="1" parent="1">
          <mxGeometry x="290" y="20" width="200" height="40" as="geometry" />
        </mxCell>
        <mxCell id="fpblmt7jhUxg1IwRCJjJ-124" value="8 ft" style="shape=dimension;whiteSpace=wrap;html=1;align=center;points=[];verticalAlign=bottom;spacingBottom=-5;labelBackgroundColor=#ffffff;strokeColor=default;fillColor=default;" vertex="1" parent="1">
          <mxGeometry x="291" y="530" width="139" height="40" as="geometry" />
        </mxCell>
        <mxCell id="fpblmt7jhUxg1IwRCJjJ-125" value="12 ft" style="shape=dimension;whiteSpace=wrap;html=1;align=center;points=[];verticalAlign=bottom;spacingBottom=-5;labelBackgroundColor=#ffffff;strokeColor=default;fillColor=default;" vertex="1" parent="1">
          <mxGeometry x="530" y="720" width="190" height="40" as="geometry" />
        </mxCell>
        <mxCell id="fpblmt7jhUxg1IwRCJjJ-126" value="12 ft" style="shape=dimension;direction=south;whiteSpace=wrap;html=1;align=left;points=[];verticalAlign=middle;labelBackgroundColor=#ffffff;strokeColor=default;fillColor=default;" vertex="1" parent="1">
          <mxGeometry x="240" y="50" width="40" height="170" as="geometry" />
        </mxCell>
        <mxCell id="fpblmt7jhUxg1IwRCJjJ-128" value="" style="verticalLabelPosition=bottom;html=1;verticalAlign=top;align=center;shape=mxgraph.floorplan.wall;fillColor=#000000;direction=south;strokeColor=default;" vertex="1" parent="1">
          <mxGeometry x="430" y="50" width="10" height="70" as="geometry" />
        </mxCell>
        <mxCell id="fpblmt7jhUxg1IwRCJjJ-129" value="" style="verticalLabelPosition=bottom;html=1;verticalAlign=top;align=center;shape=mxgraph.floorplan.wall;fillColor=#000000;strokeColor=default;" vertex="1" parent="1">
          <mxGeometry x="400" y="161" width="50" height="10" as="geometry" />
        </mxCell>
        <mxCell id="fpblmt7jhUxg1IwRCJjJ-130" value="" style="verticalLabelPosition=bottom;html=1;verticalAlign=top;align=center;shape=mxgraph.floorplan.flat_tv;strokeColor=default;fillColor=default;rotation=-90;" vertex="1" parent="1">
          <mxGeometry x="263.75" y="330" width="70" height="10" as="geometry" />
        </mxCell>
        <mxCell id="fpblmt7jhUxg1IwRCJjJ-131" value="" style="verticalLabelPosition=bottom;html=1;verticalAlign=top;align=center;shape=mxgraph.floorplan.sofa;strokeColor=default;fillColor=default;rotation=90;" vertex="1" parent="1">
          <mxGeometry x="400" y="315" width="60" height="40" as="geometry" />
        </mxCell>
        <mxCell id="fpblmt7jhUxg1IwRCJjJ-132" value="" style="verticalLabelPosition=bottom;html=1;verticalAlign=top;align=center;shape=mxgraph.floorplan.couch;strokeColor=default;fillColor=default;rotation=-180;" vertex="1" parent="1">
          <mxGeometry x="325" y="383" width="80" height="53" as="geometry" />
        </mxCell>
        <mxCell id="fpblmt7jhUxg1IwRCJjJ-140" value="" style="verticalLabelPosition=bottom;html=1;verticalAlign=top;align=center;shape=mxgraph.floorplan.office_chair;shadow=0;strokeColor=default;fillColor=default;" vertex="1" parent="1">
          <mxGeometry x="535" y="240" width="30" height="28" as="geometry" />
        </mxCell>
        <mxCell id="fpblmt7jhUxg1IwRCJjJ-141" value="" style="verticalLabelPosition=bottom;html=1;verticalAlign=top;align=center;shape=mxgraph.floorplan.office_chair;shadow=0;direction=west;strokeColor=default;fillColor=default;" vertex="1" parent="1">
          <mxGeometry x="535" y="383" width="30" height="28" as="geometry" />
        </mxCell>
        <mxCell id="fpblmt7jhUxg1IwRCJjJ-142" value="" style="verticalLabelPosition=bottom;html=1;verticalAlign=top;align=center;shape=mxgraph.floorplan.office_chair;shadow=0;direction=north;strokeColor=default;fillColor=default;" vertex="1" parent="1">
          <mxGeometry x="497" y="280" width="23" height="35" as="geometry" />
        </mxCell>
        <mxCell id="fpblmt7jhUxg1IwRCJjJ-143" value="" style="verticalLabelPosition=bottom;html=1;verticalAlign=top;align=center;shape=mxgraph.floorplan.office_chair;shadow=0;direction=south;strokeColor=default;fillColor=default;" vertex="1" parent="1">
          <mxGeometry x="577" y="280" width="33" height="30" as="geometry" />
        </mxCell>
        <mxCell id="fpblmt7jhUxg1IwRCJjJ-144" value="" style="verticalLabelPosition=bottom;html=1;verticalAlign=top;align=center;shape=mxgraph.floorplan.office_chair;shadow=0;strokeColor=default;fillColor=default;rotation=-90;" vertex="1" parent="1">
          <mxGeometry x="490" y="340" width="30" height="28" as="geometry" />
        </mxCell>
        <mxCell id="fpblmt7jhUxg1IwRCJjJ-145" value="" style="verticalLabelPosition=bottom;html=1;verticalAlign=top;align=center;shape=mxgraph.floorplan.office_chair;shadow=0;direction=west;strokeColor=default;fillColor=default;rotation=-90;" vertex="1" parent="1">
          <mxGeometry x="580" y="340" width="30" height="28" as="geometry" />
        </mxCell>
        <mxCell id="fpblmt7jhUxg1IwRCJjJ-146" value="" style="shape=rect;shadow=0;strokeColor=default;fillColor=default;rotation=90;" vertex="1" parent="1">
          <mxGeometry x="490" y="292.5" width="120" height="65" as="geometry" />
        </mxCell>
      </root>
    </mxGraphModel>
  </diagram>
</mxfile>
